<svg width="24" height="24" viewBox="0 0 24 24" fill="none" xmlns="http://www.w3.org/2000/svg">
<path d="M18.571 2.85002C17.0207 1.95515 15.1783 1.71276 13.4493 2.17615C11.7202 2.63955 10.246 3.77078 9.351 5.32102L9.101 5.75402C9.05166 5.8393 9.0196 5.93348 9.00667 6.03115C8.99374 6.12883 9.00018 6.2281 9.02562 6.32329C9.05107 6.41848 9.09502 6.50772 9.15497 6.58592C9.21492 6.66411 9.28968 6.72973 9.375 6.77902L13.909 9.39702L11.104 14.307C9.224 14.546 7.562 15.524 6.321 16.914C6.68473 16.9732 7.02504 17.1317 7.30438 17.372C7.58372 17.6123 7.79123 17.9252 7.904 18.276C8.139 19.009 8.628 19.232 9.022 19.236C9.425 19.241 9.884 19.023 10.102 18.368C10.2347 17.9697 10.4893 17.6232 10.8299 17.3777C11.1705 17.1322 11.5797 17.0001 11.9995 17.0001C12.4193 17.0001 12.8285 17.1322 13.1691 17.3777C13.5097 17.6232 13.7643 17.9697 13.897 18.368C14.116 19.023 14.575 19.241 14.977 19.236C15.371 19.232 15.86 19.009 16.096 18.276C16.2088 17.9252 16.4163 17.6123 16.6956 17.372C16.975 17.1317 17.3153 16.9732 17.679 16.914C16.425 15.509 14.741 14.525 12.836 14.299L15.209 10.147L19.767 12.779C19.8523 12.8284 19.9465 12.8604 20.0441 12.8733C20.1418 12.8863 20.2411 12.8798 20.3363 12.8544C20.4315 12.8289 20.5207 12.785 20.5989 12.7251C20.6771 12.6651 20.7427 12.5903 20.792 12.505L21.042 12.071C21.9369 10.5208 22.1795 8.67857 21.7163 6.94953C21.2531 5.22049 20.1221 3.74623 18.572 2.85102L18.571 2.85002ZM6.714 18.66C6.66398 18.504 6.56424 18.3686 6.43001 18.2746C6.29579 18.1806 6.13447 18.1332 5.97073 18.1395C5.80699 18.1459 5.64983 18.2057 5.52329 18.3098C5.39675 18.4139 5.30778 18.5566 5.27 18.716C5.06 19.607 4.663 20.08 4.229 20.35C3.769 20.636 3.179 20.751 2.5 20.751C2.30109 20.751 2.11032 20.83 1.96967 20.9707C1.82902 21.1113 1.75 21.3021 1.75 21.501C1.75 21.6999 1.82902 21.8907 1.96967 22.0313C2.11032 22.172 2.30109 22.251 2.5 22.251C3.322 22.251 4.23 22.116 5.021 21.624C5.44417 21.3605 5.80623 21.0097 6.083 20.595C7.635 22.461 10.493 22.452 12 20.566C13.534 22.485 16.466 22.461 17.997 20.496C18.845 21.604 20.167 22.251 21.5 22.251C21.6989 22.251 21.8897 22.172 22.0303 22.0313C22.171 21.8907 22.25 21.6999 22.25 21.501C22.25 21.3021 22.171 21.1113 22.0303 20.9707C21.8897 20.83 21.6989 20.751 21.5 20.751C20.317 20.751 19.116 19.954 18.716 18.667C18.6686 18.5149 18.5741 18.3818 18.446 18.287C18.3179 18.1922 18.1629 18.1407 18.0036 18.1399C17.8442 18.1392 17.6888 18.1891 17.5597 18.2827C17.4307 18.3762 17.3348 18.5083 17.286 18.66C16.502 21.1 13.476 21.059 12.711 18.764C12.661 18.6151 12.5655 18.4856 12.4379 18.3938C12.3103 18.3021 12.1571 18.2527 12 18.2527C11.8429 18.2527 11.6897 18.3021 11.5621 18.3938C11.4345 18.4856 11.339 18.6151 11.289 18.764C10.524 21.059 7.498 21.099 6.714 18.66Z" fill="#7BBCB0"/>
</svg>
