<svg width="32" height="29" viewBox="0 0 32 29" fill="none" xmlns="http://www.w3.org/2000/svg">
<g clip-path="url(#clip0_28_207)" filter="url(#filter0_d_28_207)">
<path d="M7.79685 12.877C8.23561 17.0156 11.7465 20.25 16 20.25C17.1547 20.2513 18.2966 20.0086 19.3511 19.538C17.462 18.7631 15.4112 17.7488 13.3619 16.568C11.3594 15.4153 9.42998 14.1328 7.79685 12.877ZM27.0962 15.9145C26.6978 15.3844 26.1587 14.7989 25.5025 14.1802C25.3773 14.7254 25.2047 15.2587 24.9869 15.7739C26.3331 17.1567 26.5431 17.8992 26.4948 18.045C26.4011 18.1495 25.6956 18.368 23.769 17.8795C23.4931 17.8095 23.1912 17.7242 22.8634 17.6236C22.6522 17.5586 22.4367 17.4884 22.217 17.4131C22.5621 17.0173 22.8688 16.5896 23.1329 16.1358C23.1409 16.1222 23.1494 16.1086 23.1573 16.0945C23.8731 14.8486 24.2498 13.4369 24.25 12C24.2502 11.7025 24.2345 11.4052 24.2031 11.1094C23.7545 6.97641 20.2469 3.75 16 3.75C14.198 3.74899 12.4457 4.34008 11.0125 5.43234C10.1438 6.09349 9.41385 6.91919 8.8642 7.86234C8.8567 7.87594 8.84826 7.88953 8.84029 7.90313C8.57906 8.35823 8.36198 8.83729 8.19201 9.33375C8.01732 9.18156 7.84873 9.03047 7.68623 8.88047C7.43357 8.6461 7.20951 8.42906 7.01029 8.22422C5.6242 6.80578 5.4592 6.08625 5.50279 5.95313C5.60404 5.83922 6.35123 5.64656 8.22764 6.11953C8.5665 5.67325 8.94286 5.25674 9.35264 4.87453C8.46857 4.61156 7.67498 4.43625 7.00654 4.35891C5.56607 4.19391 4.62342 4.4775 4.20389 5.20313C4.05201 5.46469 3.90623 5.91047 4.07639 6.54375C4.32811 7.48406 5.22529 8.625 6.49514 9.82031C6.89967 10.2014 7.3417 10.5877 7.81326 10.9753C8.15639 11.2566 8.51639 11.5406 8.8867 11.8228C9.13389 12.0103 9.38623 12.1978 9.64373 12.3853C9.90123 12.5728 10.1622 12.7569 10.4265 12.9375C11.6176 13.763 12.8762 14.5556 14.1104 15.2667C14.5586 15.5248 15.0061 15.7748 15.4529 16.0167C15.8998 16.2586 16.3431 16.49 16.7828 16.7109C17.8094 17.2266 18.8148 17.6916 19.7762 18.0905C20.1884 18.2617 20.5917 18.4205 20.9861 18.5667C21.5434 18.7739 22.0815 18.9563 22.5944 19.11L22.6459 19.1255C23.852 19.4845 24.8687 19.6734 25.6684 19.688H25.75C26.7644 19.688 27.4515 19.3889 27.7928 18.7973C28.2189 18.0652 27.984 17.0948 27.0962 15.9145Z" fill="#7BBCB0"/>
</g>
<defs>
<filter id="filter0_d_28_207" x="0" y="0" width="32" height="32" filterUnits="userSpaceOnUse" color-interpolation-filters="sRGB">
<feFlood flood-opacity="0" result="BackgroundImageFix"/>
<feColorMatrix in="SourceAlpha" type="matrix" values="0 0 0 0 0 0 0 0 0 0 0 0 0 0 0 0 0 0 127 0" result="hardAlpha"/>
<feOffset dy="4"/>
<feGaussianBlur stdDeviation="2"/>
<feComposite in2="hardAlpha" operator="out"/>
<feColorMatrix type="matrix" values="0 0 0 0 0 0 0 0 0 0 0 0 0 0 0 0 0 0 0.25 0"/>
<feBlend mode="normal" in2="BackgroundImageFix" result="effect1_dropShadow_28_207"/>
<feBlend mode="normal" in="SourceGraphic" in2="effect1_dropShadow_28_207" result="shape"/>
</filter>
<clipPath id="clip0_28_207">
<rect width="24" height="24" fill="white" transform="translate(4)"/>
</clipPath>
</defs>
</svg>
