<svg width="18" height="18" viewBox="0 0 18 18" fill="none" xmlns="http://www.w3.org/2000/svg">
<path d="M12.75 7.5C13.5456 7.5 14.3087 7.81607 14.8713 8.37868C15.4339 8.94129 15.75 9.70435 15.75 10.5V14.25C15.75 14.6478 15.592 15.0294 15.3107 15.3107C15.0294 15.592 14.6478 15.75 14.25 15.75H3.75C3.35218 15.75 2.97064 15.592 2.68934 15.3107C2.40804 15.0294 2.25 14.6478 2.25 14.25V10.5C2.25 9.70435 2.56607 8.94129 3.12868 8.37868C3.69129 7.81607 4.45435 7.5 5.25 7.5V5.25H6.75V7.5H8.25V5.25H9.75V7.5H11.25V5.25H12.75V7.5ZM5.25 9C4.85218 9 4.47064 9.15804 4.18934 9.43934C3.90804 9.72064 3.75 10.1022 3.75 10.5V11.25H14.25V10.5C14.25 10.1022 14.092 9.72064 13.8107 9.43934C13.5294 9.15804 13.1478 9 12.75 9H5.25ZM3.75 12.75V14.25H14.25V12.75H3.75ZM5.25 3C5.44891 3 5.63968 2.92098 5.78033 2.78033C5.92098 2.63968 6 2.44891 6 2.25C6.19891 2.25 6.38968 2.32902 6.53033 2.46967C6.67098 2.61032 6.75 2.80109 6.75 3V3.75C6.75 3.94891 6.67098 4.13968 6.53033 4.28033C6.38968 4.42098 6.19891 4.5 6 4.5C5.80109 4.5 5.61032 4.42098 5.46967 4.28033C5.32902 4.13968 5.25 3.94891 5.25 3.75V3ZM8.25 3C8.44891 3 8.63968 2.92098 8.78033 2.78033C8.92098 2.63968 9 2.44891 9 2.25C9.19891 2.25 9.38968 2.32902 9.53033 2.46967C9.67098 2.61032 9.75 2.80109 9.75 3V3.75C9.75 3.94891 9.67098 4.13968 9.53033 4.28033C9.38968 4.42098 9.19891 4.5 9 4.5C8.80109 4.5 8.61032 4.42098 8.46967 4.28033C8.32902 4.13968 8.25 3.94891 8.25 3.75V3ZM11.25 3C11.4489 3 11.6397 2.92098 11.7803 2.78033C11.921 2.63968 12 2.44891 12 2.25C12.1989 2.25 12.3897 2.32902 12.5303 2.46967C12.671 2.61032 12.75 2.80109 12.75 3V3.75C12.75 3.94891 12.671 4.13968 12.5303 4.28033C12.3897 4.42098 12.1989 4.5 12 4.5C11.8011 4.5 11.6103 4.42098 11.4697 4.28033C11.329 4.13968 11.25 3.94891 11.25 3.75V3Z" fill="#495560"/>
</svg>
